# xmcd
#
# Track frame offsets: 
#        150
#        20122
#        45203
#        63861
#        78833
#        98036
#        124690
#        165524
#
# Disc length: 2496 seconds
#
# Revision: 0
# Processed by: cddbd v1.5.2PL0 Copyright (c) Steve Scherf et al.
# Submitted via: ExactAudioCopyFreeDBPlugin 1.0
#
DISCID=5309be08
DTITLE=Blue Rodeo - Things We Left Behind Disc 1
DYEAR=2009
DGENRE=Country-Rock
TTITLE0=All The Things That Are Left Behind
TTITLE1=One More Night
TTITLE2=Waiting For The World
TTITLE3=Never Look Back
TTITLE4=Sheba
TTITLE5=One Light Left In Heaven
TTITLE6=Million Miles
TTITLE7=Gossip
EXTD=
EXTT0=
EXTT1=
EXTT2=
EXTT3=
EXTT4=
EXTT5=
EXTT6=
EXTT7=
PLAYORDER=
